<svg width="22" height="18" viewBox="0 0 22 18" fill="none" xmlns="http://www.w3.org/2000/svg">
<path d="M5 8V12M17 6V10M16 1C18.4487 1 19.7731 1.37476 20.4321 1.66544C20.5199 1.70415 20.5638 1.72351 20.6904 1.84437C20.7663 1.91682 20.9049 2.12939 20.9405 2.22809C21 2.39274 21 2.48274 21 2.66274V13.4111C21 14.3199 21 14.7743 20.8637 15.0079C20.7251 15.2454 20.5914 15.3559 20.3319 15.4472C20.0769 15.5369 19.562 15.438 18.5322 15.2401C17.8114 15.1017 16.9565 15 16 15C13 15 10 17 6 17C3.55129 17 2.22687 16.6252 1.56788 16.3346C1.48012 16.2958 1.43624 16.2765 1.3096 16.1556C1.23369 16.0832 1.09512 15.8706 1.05947 15.7719C1 15.6073 1 15.5173 1 15.3373L1 4.58885C1 3.68009 1 3.2257 1.13628 2.99214C1.2749 2.75456 1.40859 2.64412 1.66806 2.55281C1.92314 2.46305 2.43803 2.56198 3.46783 2.75985C4.18862 2.89834 5.04348 3 6 3C9 3 12 1 16 1ZM13.5 9C13.5 10.3807 12.3807 11.5 11 11.5C9.61929 11.5 8.5 10.3807 8.5 9C8.5 7.61929 9.61929 6.5 11 6.5C12.3807 6.5 13.5 7.61929 13.5 9Z" stroke="#CCFF01" stroke-width="1.5" stroke-linecap="round" stroke-linejoin="round"/>
</svg>
