<svg width="20" height="20" viewBox="0 0 20 20" fill="none" xmlns="http://www.w3.org/2000/svg">
<path d="M4.43021 16.1986C4.93714 15.0043 6.12073 14.1666 7.49996 14.1666H12.5C13.8792 14.1666 15.0628 15.0043 15.5697 16.1986M13.3333 7.91663C13.3333 9.75758 11.8409 11.25 9.99996 11.25C8.15901 11.25 6.66663 9.75758 6.66663 7.91663C6.66663 6.07568 8.15901 4.58329 9.99996 4.58329C11.8409 4.58329 13.3333 6.07568 13.3333 7.91663ZM18.3333 9.99996C18.3333 14.6023 14.6023 18.3333 9.99996 18.3333C5.39759 18.3333 1.66663 14.6023 1.66663 9.99996C1.66663 5.39759 5.39759 1.66663 9.99996 1.66663C14.6023 1.66663 18.3333 5.39759 18.3333 9.99996Z" stroke="#CCFF01" stroke-width="1.5" stroke-linecap="round" stroke-linejoin="round"/>
</svg>
