<svg width="18" height="19" viewBox="0 0 18 19" fill="none" xmlns="http://www.w3.org/2000/svg">
<path d="M9 13.3333C10.3807 13.3333 11.5 12.214 11.5 10.8333C11.5 9.45261 10.3807 8.33332 9 8.33332C7.61929 8.33332 6.5 9.45261 6.5 10.8333C6.5 12.214 7.61929 13.3333 9 13.3333Z" stroke="#D9D9D9" stroke-width="2" stroke-linecap="round" stroke-linejoin="round"/>
<path d="M1.5 8.80421C1.5 8.32558 1.5 8.08627 1.56169 7.86588C1.61633 7.67065 1.70614 7.48704 1.82669 7.32405C1.96278 7.14005 2.15168 6.99312 2.52949 6.69927L8.18141 2.30333C8.47418 2.07562 8.62057 1.96177 8.78221 1.918C8.92484 1.87938 9.07516 1.87938 9.21779 1.918C9.37943 1.96177 9.52582 2.07562 9.81859 2.30333L15.4705 6.69927C15.8483 6.99312 16.0372 7.14005 16.1733 7.32405C16.2939 7.48704 16.3837 7.67065 16.4383 7.86588C16.5 8.08627 16.5 8.32558 16.5 8.80421V14.8333C16.5 15.7667 16.5 16.2335 16.3183 16.59C16.1586 16.9036 15.9036 17.1585 15.59 17.3183C15.2335 17.5 14.7668 17.5 13.8333 17.5H4.16667C3.23325 17.5 2.76654 17.5 2.41002 17.3183C2.09641 17.1585 1.84144 16.9036 1.68166 16.59C1.5 16.2335 1.5 15.7667 1.5 14.8333V8.80421Z" stroke="#D9D9D9" stroke-width="2" stroke-linecap="round" stroke-linejoin="round"/>
</svg>
