<svg width="18" height="18" viewBox="0 0 18 18" fill="none" xmlns="http://www.w3.org/2000/svg">
<path d="M3.16667 6.50006V13.1667M6.91667 6.50006V13.1667M11.0833 6.50006V13.1667M14.8333 6.50006V13.1667M1.5 14.5001L1.5 15.1667C1.5 15.6334 1.5 15.8668 1.59083 16.045C1.67072 16.2019 1.79821 16.3293 1.95501 16.4092C2.13327 16.5001 2.36662 16.5001 2.83333 16.5001H15.1667C15.6334 16.5001 15.8667 16.5001 16.045 16.4092C16.2018 16.3293 16.3293 16.2019 16.4092 16.045C16.5 15.8668 16.5 15.6334 16.5 15.1667V14.5001C16.5 14.0333 16.5 13.8 16.4092 13.6217C16.3293 13.4649 16.2018 13.3374 16.045 13.2576C15.8667 13.1667 15.6334 13.1667 15.1667 13.1667H2.83333C2.36662 13.1667 2.13327 13.1667 1.95501 13.2576C1.79821 13.3374 1.67072 13.4649 1.59083 13.6217C1.5 13.8 1.5 14.0333 1.5 14.5001ZM8.71076 1.56433L2.54409 2.9347C2.17154 3.01749 1.98527 3.05889 1.84622 3.15906C1.72358 3.24742 1.62727 3.36747 1.56762 3.50636C1.5 3.66383 1.5 3.85465 1.5 4.23629L1.5 5.16672C1.5 5.63343 1.5 5.86679 1.59083 6.04505C1.67072 6.20185 1.79821 6.32933 1.95501 6.40923C2.13327 6.50006 2.36662 6.50006 2.83333 6.50006H15.1667C15.6334 6.50006 15.8667 6.50006 16.045 6.40923C16.2018 6.32933 16.3293 6.20185 16.4092 6.04505C16.5 5.86679 16.5 5.63343 16.5 5.16672V4.23629C16.5 3.85465 16.5 3.66383 16.4324 3.50636C16.3727 3.36747 16.2764 3.24742 16.1538 3.15906C16.0147 3.05889 15.8285 3.01749 15.4559 2.9347L9.28924 1.56433C9.1813 1.54035 9.12733 1.52835 9.0728 1.52357C9.02436 1.51932 8.97564 1.51932 8.9272 1.52357C8.87267 1.52835 8.8187 1.54035 8.71076 1.56433Z" stroke="#CCFF01" stroke-width="1.5" stroke-linecap="round" stroke-linejoin="round"/>
</svg>
