<svg width="49" height="28" viewBox="0 0 49 28" fill="none" xmlns="http://www.w3.org/2000/svg">
<circle cx="35" cy="14" r="14" fill="#D9D9D9"/>
<path d="M34.9999 1.88477C28.2961 1.88477 22.8845 7.2963 22.8845 14.0001H47.1153C47.1153 7.2963 41.7038 1.88477 34.9999 1.88477Z" fill="#42ADE2"/>
<path d="M45.5 20.0581H24.5C26.6 23.6927 30.5173 26.1158 35 26.1158C39.4827 26.1158 43.4 23.6927 45.5 20.0581Z" fill="#699635"/>
<path d="M45.4999 20.0578C46.5499 18.2809 47.1153 16.2212 47.1153 14.0001H22.8845C22.8845 16.2212 23.4903 18.2809 24.4999 20.0578H45.4999ZM40.7345 8.95201L44.248 8.75008L40.7345 8.54816L44.0864 7.41739L40.6538 8.14431L43.5614 6.20585L40.4518 7.78085L42.7538 5.15585L40.1288 7.49816L41.7038 4.34816L39.8057 7.29624L40.4922 3.86354L39.4018 7.17508L39.1999 3.66162L38.998 7.17508L37.8672 3.86354L38.5941 7.29624L36.6557 4.34816L38.2307 7.49816L35.6057 5.15585L37.948 7.78085L34.798 6.20585L37.7461 8.14431L34.3134 7.41739L37.6249 8.54816L34.1518 8.75008L37.6249 8.95201L34.3134 10.0424L37.7461 9.31547L34.798 11.2539L37.948 9.67893L35.6057 12.3039L38.2307 9.96162L36.6557 13.1116L38.5941 10.1635L37.8672 13.5962L38.998 10.2847L39.1999 13.7982L39.4018 10.2847L40.4922 13.5962L39.8057 10.1635L41.7038 13.1116L40.1288 9.96162L42.7538 12.3039L40.4518 9.67893L43.5614 11.2539L40.6538 9.31547L44.0864 10.0424L40.7345 8.95201Z" fill="#FFE62E"/>
<path d="M39.1998 10.2443C40.025 10.2443 40.694 9.57533 40.694 8.75009C40.694 7.92485 40.025 7.25586 39.1998 7.25586C38.3746 7.25586 37.7056 7.92485 37.7056 8.75009C37.7056 9.57533 38.3746 10.2443 39.1998 10.2443Z" fill="#FFE62E"/>
<path d="M39.2 10.3657C38.3115 10.3657 37.5442 9.63881 37.5442 8.70997C37.5442 7.82151 38.2711 7.0542 39.2 7.0542C40.1288 7.0542 40.8557 7.78112 40.8557 8.70997C40.8557 9.63881 40.0884 10.3657 39.2 10.3657ZM39.2 7.37728C38.473 7.37728 37.8673 7.98305 37.8673 8.70997C37.8673 9.43689 38.473 10.0427 39.2 10.0427C39.9269 10.0427 40.5327 9.43689 40.5327 8.70997C40.5327 7.98305 39.9269 7.37728 39.2 7.37728Z" fill="#42ADE2"/>
<circle cx="14" cy="14" r="14" fill="#D9D9D9"/>
<path d="M13.9999 1.88477C8.70951 1.88477 4.22681 5.27707 2.57104 9.96169H25.4287C23.773 5.27707 19.2903 1.88477 13.9999 1.88477Z" fill="#ED4C5C"/>
<path d="M13.9999 26.1155C19.2903 26.1155 23.773 22.7636 25.4287 18.0386H2.57104C4.22681 22.7636 8.70951 26.1155 13.9999 26.1155Z" fill="#3E4347"/>
<path d="M2.57106 9.96191C2.12683 11.2138 1.88452 12.5869 1.88452 14.0004C1.88452 15.4138 2.12683 16.7869 2.57106 18.0388H25.4288C25.873 16.7869 26.1153 15.4138 26.1153 14.0004C26.1153 12.5869 25.873 11.2138 25.4288 9.96191H2.57106Z" fill="#F9F9F9"/>
<path d="M13.4347 11.2138C13.5559 11.1331 13.6367 11.2138 13.7174 11.2946C13.7578 11.3754 13.7578 11.6177 13.677 11.9004C13.6367 12.0619 13.5155 12.2235 13.4347 12.3446C13.5963 12.3446 13.7982 12.3042 14.0001 12.2235C14.202 12.3042 14.3636 12.3446 14.5655 12.3446C14.4847 12.1831 14.404 11.86 14.4443 11.6177C14.4443 11.2542 14.404 11.1331 14.3232 11.0523C14.2424 10.9715 14.0405 10.9312 13.9193 10.9312C13.8386 10.9312 13.8386 10.9715 13.8386 10.9715C13.677 10.9312 13.5559 10.9312 13.4751 10.9715C13.3943 11.0523 13.3943 11.2542 13.4347 11.2138Z" fill="white"/>
<path d="M16.1404 12.4253C16.0596 11.9811 15.6154 12.1022 15.2519 12.3041C15.0904 12.3849 14.9289 12.4657 14.7673 12.4657H14.6462C14.4442 12.4657 14.2019 12.4253 14 12.3445C13.7981 12.4253 13.5558 12.4657 13.3538 12.4657H13.2731C13.0712 12.4657 12.9096 12.3849 12.7481 12.2637C12.425 12.1022 11.9808 11.9811 11.8596 12.3849C11.9404 12.3445 12.0212 12.2637 12.0615 12.2637L11.9 16.1407L11.9808 16.0599L12.1423 12.3041C12.1827 12.3445 12.3442 12.5061 12.3846 12.5061L12.2635 15.7772L12.3846 15.6561L12.5058 12.5464C12.5462 12.5868 12.6673 12.6676 12.7077 12.708L12.5865 15.4137L12.9096 15.1311L13.2327 14.0407C12.95 13.4349 12.9904 12.9099 12.9904 12.9099H13.0712C13.2731 12.9099 13.7173 12.7887 13.9192 12.6676C13.9596 12.6676 13.9596 12.6272 14 12.6272C14 12.6676 14.0404 12.6676 14.0808 12.708C14.2827 12.8291 14.7269 12.9503 14.9288 12.9503H15.0096C15.0096 12.9503 15.05 13.4753 14.7673 14.0811L15.05 15.1311L15.3731 15.4137L15.2519 12.7484C15.2923 12.708 15.3731 12.6272 15.4538 12.5868L15.575 15.6157L15.6962 15.7368L15.575 12.5061C15.6154 12.4657 15.7769 12.3445 15.8173 12.3041L15.9789 16.0195L16.0596 16.1003L15.8981 12.2637C15.9385 12.3041 16.0596 12.3849 16.1404 12.4253Z" fill="white"/>
<path d="M13.6365 13.0717V14.6467C13.6365 14.6467 13.6365 14.6871 13.6769 14.6871C13.7172 14.7679 13.798 14.8082 13.8384 14.889L13.9596 15.0102L14.0807 14.889L14.2826 14.6871V13.1525C14.1615 13.1121 14.0403 13.0717 13.9596 12.9909C13.9192 12.9506 13.798 12.9909 13.6365 13.0717Z" fill="white"/>
<path d="M15.7365 16.3831C15.7365 16.1812 15.5346 16.1812 15.3731 16.2215C15.3327 16.2215 15.3327 16.2215 15.2923 16.2619L15.05 15.3735L16.3827 16.6658L16.2211 12.4658C16.1808 11.8196 15.6558 11.9812 15.2923 12.2235C15.0904 12.3446 14.9288 12.4254 14.7269 12.4254C14.4442 11.9408 14.6058 11.2946 14.4038 11.1331C14.3231 11.0523 14.0404 10.9312 13.8384 10.9312C13.7173 10.9312 13.7577 11.0119 13.7577 11.0119C13.5558 10.9715 13.3942 10.9715 13.3134 11.0523C13.2327 11.0927 13.3134 11.4965 13.3538 11.4158C13.475 11.2946 13.5154 11.335 13.5961 11.4562C13.6769 11.5773 13.5154 12.0619 13.3134 12.4254C13.0711 12.4254 12.8692 12.3446 12.6673 12.2235C12.2634 11.9812 11.7384 11.86 11.7384 12.4658L11.5769 16.6254L12.9096 15.3735L12.6673 16.2215C12.6269 16.2215 12.6269 16.2215 12.5865 16.1812C12.425 16.1408 12.2231 16.1408 12.2231 16.3427C11.9808 16.3023 11.9 16.6658 12.1423 16.7465C12.1423 16.8677 12.1423 16.9485 12.3038 16.9485C12.6673 17.0696 13.3134 17.11 13.9596 17.11C14.6058 17.11 15.2519 17.0696 15.6154 16.9485C15.7769 16.9081 15.7769 16.8273 15.7769 16.7465C16.1 16.6658 15.9788 16.3023 15.7365 16.3831ZM13.6769 14.6465C13.6769 14.6062 13.6769 14.6062 13.6769 14.6465L13.6365 14.6062V13.0715C13.7981 13.0312 13.9192 12.9908 14 12.91C14.0808 12.9908 14.2019 13.0312 14.3231 13.0715V14.6062C14.2423 14.6869 14.2019 14.7677 14.1211 14.8081L14 14.9292L13.8788 14.8081C13.7981 14.7677 13.7577 14.6869 13.6769 14.6465ZM13.6769 11.9408C13.7577 11.6581 13.7577 11.4158 13.7173 11.335C13.6365 11.2542 13.5558 11.1735 13.4346 11.2542C13.3942 11.2946 13.3942 11.0927 13.475 11.0523C13.5558 11.0119 13.6769 11.0119 13.8384 11.0523C13.8384 11.0523 13.8384 10.9715 13.9192 11.0119C14.0404 11.0119 14.2827 11.0927 14.3231 11.1331C14.3634 11.1735 14.4442 11.335 14.4442 11.6985C14.4442 11.9408 14.4846 12.2638 14.5654 12.4254C14.4038 12.4254 14.2019 12.385 14 12.3042C13.7981 12.385 13.6365 12.4254 13.4346 12.4254C13.5154 12.2638 13.6365 12.1023 13.6769 11.9408ZM12.6269 15.535L12.7481 12.8292C12.7077 12.7888 12.6269 12.7081 12.5461 12.6677L12.3846 15.7369L12.2634 15.8581L12.3846 12.5869C12.3442 12.5465 12.1827 12.4254 12.1423 12.385L11.9808 16.1408L11.9 16.2215L12.0615 12.3446C12.0211 12.3446 11.9 12.385 11.8596 12.4658C11.9808 12.0619 12.425 12.1831 12.7481 12.385C12.9096 12.5062 13.1115 12.5465 13.2731 12.5869H13.3538C13.5558 12.5869 13.7577 12.5465 14 12.4658C14.2423 12.5465 14.4442 12.5869 14.6461 12.5869H14.7673C14.9288 12.5465 15.0904 12.5062 15.2519 12.4254C15.6154 12.2235 16.0596 12.1023 16.1404 12.5465C16.0596 12.5062 15.9384 12.4254 15.8981 12.4254L16.0596 16.2619L15.9788 16.1812L15.8173 12.385C15.7769 12.4254 15.6154 12.5869 15.575 12.5869L15.6961 15.8177L15.575 15.6965L15.4538 12.6677C15.4134 12.7081 15.2923 12.7888 15.2519 12.8292L15.3731 15.4946L15.05 15.2119L14.7673 14.1619C15.05 13.5562 15.0096 13.0312 15.0096 13.0312H14.9288C14.7269 13.0312 14.2827 12.9504 14.0808 12.7888C14.0404 12.7888 14.0404 12.7485 14 12.7081C14 12.7081 13.9596 12.7485 13.9192 12.7485C13.7173 12.8696 13.2731 12.9908 13.0711 12.9908H12.9904C12.9904 12.9908 12.95 13.5158 13.2327 14.1215L12.9096 15.2119L12.6269 15.535ZM14 16.3427H13.5558L13.8384 14.9696C13.8788 15.01 13.9192 15.0504 14 15.0908C14.0404 15.0504 14.1211 15.01 14.1615 14.9696L14.4846 16.3427H14Z" fill="#C09300"/>
</svg>
