<svg width="49" height="28" viewBox="0 0 49 28" fill="none" xmlns="http://www.w3.org/2000/svg">
<circle cx="35" cy="14" r="14" fill="#D9D9D9"/>
<path d="M34.9999 1.88477C29.7095 1.88477 25.2268 5.27707 23.571 9.96169H46.4287C44.773 5.27707 40.2903 1.88477 34.9999 1.88477Z" fill="#ED4C5C"/>
<path d="M34.9999 26.1155C40.2903 26.1155 44.773 22.7636 46.4287 18.0386H23.571C25.2268 22.7636 29.7095 26.1155 34.9999 26.1155Z" fill="#3E4347"/>
<path d="M23.5711 9.96191C23.1268 11.2138 22.8845 12.5869 22.8845 14.0004C22.8845 15.4138 23.1268 16.7869 23.5711 18.0388H46.4288C46.873 16.7869 47.1153 15.4138 47.1153 14.0004C47.1153 12.5869 46.873 11.2138 46.4288 9.96191H23.5711Z" fill="#F9F9F9"/>
<path d="M34.4347 11.2138C34.5559 11.1331 34.6367 11.2138 34.7174 11.2946C34.7578 11.3754 34.7578 11.6177 34.677 11.9004C34.6367 12.0619 34.5155 12.2235 34.4347 12.3446C34.5963 12.3446 34.7982 12.3042 35.0001 12.2235C35.202 12.3042 35.3636 12.3446 35.5655 12.3446C35.4847 12.1831 35.404 11.86 35.4443 11.6177C35.4443 11.2542 35.404 11.1331 35.3232 11.0523C35.2424 10.9715 35.0405 10.9312 34.9193 10.9312C34.8386 10.9312 34.8386 10.9715 34.8386 10.9715C34.677 10.9312 34.5559 10.9312 34.4751 10.9715C34.3943 11.0523 34.3943 11.2542 34.4347 11.2138Z" fill="white"/>
<path d="M37.1404 12.4253C37.0596 11.9811 36.6154 12.1022 36.2519 12.3041C36.0904 12.3849 35.9289 12.4657 35.7673 12.4657H35.6462C35.4442 12.4657 35.2019 12.4253 35 12.3445C34.7981 12.4253 34.5558 12.4657 34.3538 12.4657H34.2731C34.0712 12.4657 33.9096 12.3849 33.7481 12.2637C33.425 12.1022 32.9808 11.9811 32.8596 12.3849C32.9404 12.3445 33.0212 12.2637 33.0615 12.2637L32.9 16.1407L32.9808 16.0599L33.1423 12.3041C33.1827 12.3445 33.3442 12.5061 33.3846 12.5061L33.2635 15.7772L33.3846 15.6561L33.5058 12.5464C33.5462 12.5868 33.6673 12.6676 33.7077 12.708L33.5865 15.4137L33.9096 15.1311L34.2327 14.0407C33.95 13.4349 33.9904 12.9099 33.9904 12.9099H34.0712C34.2731 12.9099 34.7173 12.7887 34.9192 12.6676C34.9596 12.6676 34.9596 12.6272 35 12.6272C35 12.6676 35.0404 12.6676 35.0808 12.708C35.2827 12.8291 35.7269 12.9503 35.9288 12.9503H36.0096C36.0096 12.9503 36.05 13.4753 35.7673 14.0811L36.05 15.1311L36.3731 15.4137L36.2519 12.7484C36.2923 12.708 36.3731 12.6272 36.4538 12.5868L36.575 15.6157L36.6962 15.7368L36.575 12.5061C36.6154 12.4657 36.7769 12.3445 36.8173 12.3041L36.9789 16.0195L37.0596 16.1003L36.8981 12.2637C36.9385 12.3041 37.0596 12.3849 37.1404 12.4253Z" fill="white"/>
<path d="M34.6365 13.0717V14.6467C34.6365 14.6467 34.6365 14.6871 34.6769 14.6871C34.7172 14.7679 34.798 14.8082 34.8384 14.889L34.9596 15.0102L35.0807 14.889L35.2826 14.6871V13.1525C35.1615 13.1121 35.0403 13.0717 34.9596 12.9909C34.9192 12.9506 34.798 12.9909 34.6365 13.0717Z" fill="white"/>
<path d="M36.7365 16.3831C36.7365 16.1812 36.5346 16.1812 36.3731 16.2215C36.3327 16.2215 36.3327 16.2215 36.2923 16.2619L36.05 15.3735L37.3827 16.6658L37.2211 12.4658C37.1808 11.8196 36.6558 11.9812 36.2923 12.2235C36.0904 12.3446 35.9288 12.4254 35.7269 12.4254C35.4442 11.9408 35.6058 11.2946 35.4038 11.1331C35.3231 11.0523 35.0404 10.9312 34.8384 10.9312C34.7173 10.9312 34.7577 11.0119 34.7577 11.0119C34.5558 10.9715 34.3942 10.9715 34.3134 11.0523C34.2327 11.0927 34.3134 11.4965 34.3538 11.4158C34.475 11.2946 34.5154 11.335 34.5961 11.4562C34.6769 11.5773 34.5154 12.0619 34.3134 12.4254C34.0711 12.4254 33.8692 12.3446 33.6673 12.2235C33.2634 11.9812 32.7384 11.86 32.7384 12.4658L32.5769 16.6254L33.9096 15.3735L33.6673 16.2215C33.6269 16.2215 33.6269 16.2215 33.5865 16.1812C33.425 16.1408 33.2231 16.1408 33.2231 16.3427C32.9808 16.3023 32.9 16.6658 33.1423 16.7465C33.1423 16.8677 33.1423 16.9485 33.3038 16.9485C33.6673 17.0696 34.3134 17.11 34.9596 17.11C35.6058 17.11 36.2519 17.0696 36.6154 16.9485C36.7769 16.9081 36.7769 16.8273 36.7769 16.7465C37.1 16.6658 36.9788 16.3023 36.7365 16.3831ZM34.6769 14.6465C34.6769 14.6062 34.6769 14.6062 34.6769 14.6465L34.6365 14.6062V13.0715C34.7981 13.0312 34.9192 12.9908 35 12.91C35.0808 12.9908 35.2019 13.0312 35.3231 13.0715V14.6062C35.2423 14.6869 35.2019 14.7677 35.1211 14.8081L35 14.9292L34.8788 14.8081C34.7981 14.7677 34.7577 14.6869 34.6769 14.6465ZM34.6769 11.9408C34.7577 11.6581 34.7577 11.4158 34.7173 11.335C34.6365 11.2542 34.5558 11.1735 34.4346 11.2542C34.3942 11.2946 34.3942 11.0927 34.475 11.0523C34.5558 11.0119 34.6769 11.0119 34.8384 11.0523C34.8384 11.0523 34.8384 10.9715 34.9192 11.0119C35.0404 11.0119 35.2827 11.0927 35.3231 11.1331C35.3634 11.1735 35.4442 11.335 35.4442 11.6985C35.4442 11.9408 35.4846 12.2638 35.5654 12.4254C35.4038 12.4254 35.2019 12.385 35 12.3042C34.7981 12.385 34.6365 12.4254 34.4346 12.4254C34.5154 12.2638 34.6365 12.1023 34.6769 11.9408ZM33.6269 15.535L33.7481 12.8292C33.7077 12.7888 33.6269 12.7081 33.5461 12.6677L33.3846 15.7369L33.2634 15.8581L33.3846 12.5869C33.3442 12.5465 33.1827 12.4254 33.1423 12.385L32.9808 16.1408L32.9 16.2215L33.0615 12.3446C33.0211 12.3446 32.9 12.385 32.8596 12.4658C32.9808 12.0619 33.425 12.1831 33.7481 12.385C33.9096 12.5062 34.1115 12.5465 34.2731 12.5869H34.3538C34.5558 12.5869 34.7577 12.5465 35 12.4658C35.2423 12.5465 35.4442 12.5869 35.6461 12.5869H35.7673C35.9288 12.5465 36.0904 12.5062 36.2519 12.4254C36.6154 12.2235 37.0596 12.1023 37.1404 12.5465C37.0596 12.5062 36.9384 12.4254 36.8981 12.4254L37.0596 16.2619L36.9788 16.1812L36.8173 12.385C36.7769 12.4254 36.6154 12.5869 36.575 12.5869L36.6961 15.8177L36.575 15.6965L36.4538 12.6677C36.4134 12.7081 36.2923 12.7888 36.2519 12.8292L36.3731 15.4946L36.05 15.2119L35.7673 14.1619C36.05 13.5562 36.0096 13.0312 36.0096 13.0312H35.9288C35.7269 13.0312 35.2827 12.9504 35.0808 12.7888C35.0404 12.7888 35.0404 12.7485 35 12.7081C35 12.7081 34.9596 12.7485 34.9192 12.7485C34.7173 12.8696 34.2731 12.9908 34.0711 12.9908H33.9904C33.9904 12.9908 33.95 13.5158 34.2327 14.1215L33.9096 15.2119L33.6269 15.535ZM35 16.3427H34.5558L34.8384 14.9696C34.8788 15.01 34.9192 15.0504 35 15.0908C35.0404 15.0504 35.1211 15.01 35.1615 14.9696L35.4846 16.3427H35Z" fill="#C09300"/>
<circle cx="14" cy="14" r="14" fill="#D9D9D9"/>
<path d="M1.88452 14.0001C1.88452 19.2905 5.27683 23.7732 9.96144 25.429V2.57129C5.27683 4.22706 1.88452 8.70975 1.88452 14.0001ZM26.1153 14.0001C26.1153 8.70975 22.7634 4.22706 18.0384 2.57129V25.429C22.7634 23.7732 26.1153 19.2905 26.1153 14.0001Z" fill="#83BF4F"/>
<path d="M9.96143 25.429C11.2133 25.8732 12.5864 26.1155 13.9999 26.1155C15.4133 26.1155 16.7864 25.8732 18.0383 25.429V2.5713C16.7864 2.12707 15.4133 1.88477 13.9999 1.88477C12.5864 1.88477 11.2133 2.12707 9.96143 2.5713V25.429Z" fill="#F9F9F9"/>
</svg>
