<svg width="180" height="190" viewBox="0 0 180 190" fill="none" xmlns="http://www.w3.org/2000/svg">
<g clip-path="url(#clip0_123_3095)">
<g opacity="0.25">
<path d="M24.2815 174.969C-8.09252 154.926 -8.09252 122.427 24.2815 102.384C56.6554 82.3413 109.137 82.3413 141.506 102.384C173.876 122.427 173.88 154.926 141.506 174.969C109.132 195.012 56.6509 195.012 24.2815 174.969Z" fill="#D9D9D9"/>
</g>
<g opacity="0.25">
<path d="M52.2076 169.327C70.1251 169.327 84.6501 160.869 84.6501 150.435C84.6501 140.002 70.1251 131.544 52.2076 131.544C34.2901 131.544 19.7651 140.002 19.7651 150.435C19.7651 160.869 34.2901 169.327 52.2076 169.327Z" fill="#E0E0E0"/>
<path d="M116.72 146.663C139.216 134.424 152.558 115.349 146.52 104.057C140.482 92.7643 117.351 93.5317 94.8546 105.77C72.3584 118.009 59.0163 137.085 65.0541 148.377C71.092 159.669 94.2235 158.902 116.72 146.663Z" fill="#E0E0E0"/>
</g>
<path d="M139.105 119.838C143.603 114.43 150.65 110.906 158.573 108.824C166.401 106.774 167.803 101.914 162.615 100.344C156.738 98.5563 149.403 101.836 144.672 106.401C136.434 114.357 135.397 120.433 135.397 120.433L139.105 119.838Z" fill="#CCFF01"/>
<path opacity="0.15" d="M139.105 119.838C143.603 114.43 150.65 110.906 158.573 108.824C166.401 106.774 167.803 101.914 162.615 100.344C156.738 98.5563 149.403 101.836 144.672 106.401C136.434 114.357 135.397 120.433 135.397 120.433L139.105 119.838Z" fill="black"/>
<path d="M136.79 119.511C136.757 119.518 136.723 119.518 136.689 119.511C136.662 119.498 136.638 119.479 136.618 119.457C136.598 119.434 136.583 119.408 136.573 119.379C136.564 119.35 136.56 119.32 136.561 119.29C136.563 119.259 136.571 119.23 136.584 119.203C143.261 105.383 158.048 101.983 161.629 102.241C161.688 102.246 161.744 102.274 161.783 102.32C161.823 102.366 161.843 102.425 161.839 102.486C161.833 102.546 161.804 102.602 161.758 102.642C161.712 102.681 161.652 102.701 161.592 102.697C158.085 102.43 143.567 105.798 136.995 119.405C136.973 119.439 136.942 119.467 136.906 119.485C136.87 119.504 136.83 119.513 136.79 119.511Z" fill="white"/>
<path d="M135.397 121.275C135.397 121.498 135.456 121.716 135.567 121.908C135.678 122.1 135.837 122.258 136.029 122.368C136.221 122.477 136.438 122.534 136.658 122.531C136.878 122.529 137.094 122.467 137.283 122.353C141.466 119.898 147.567 118.539 157.441 121.377C162.693 122.883 165.277 121.874 166.383 119.718C167.616 117.323 165.013 115.006 162.044 113.914C151.938 110.188 142.818 112.73 135.397 120.165V121.275Z" fill="#CCFF01"/>
<path d="M135.977 121.474C135.945 121.475 135.912 121.468 135.883 121.456C135.853 121.443 135.826 121.424 135.803 121.4C135.761 121.356 135.738 121.298 135.738 121.237C135.738 121.176 135.761 121.117 135.803 121.073C144.531 113.205 158.048 114.739 163.163 117.807C163.215 117.838 163.253 117.888 163.268 117.947C163.283 118.005 163.275 118.068 163.245 118.12C163.214 118.173 163.163 118.211 163.105 118.227C163.046 118.242 162.983 118.234 162.93 118.203C157.907 115.195 144.663 113.698 136.109 121.428C136.071 121.456 136.025 121.472 135.977 121.474Z" fill="white"/>
<path d="M53.2769 149.32C49.4408 143.415 42.8555 139.075 35.2289 136.067C27.7029 133.096 26.8763 128.107 32.2103 127.158C38.2567 126.085 45.1571 130.217 49.322 135.312C56.5741 144.193 56.8892 150.375 56.8892 150.375L53.2769 149.32Z" fill="#CCFF01"/>
<path opacity="0.15" d="M53.2769 149.32C49.4408 143.415 42.8555 139.075 35.2289 136.067C27.7029 133.096 26.8763 128.107 32.2103 127.158C38.2567 126.085 45.1571 130.217 49.322 135.312C56.5741 144.193 56.8892 150.375 56.8892 150.375L53.2769 149.32Z" fill="black"/>
<path d="M55.6015 149.283C55.6344 149.292 55.669 149.292 55.7019 149.283C55.7586 149.263 55.8052 149.222 55.8317 149.167C55.8582 149.113 55.8624 149.051 55.8435 148.993C50.82 134.473 36.5534 129.342 32.9548 129.185C32.8945 129.184 32.8361 129.206 32.7918 129.247C32.7475 129.289 32.7208 129.346 32.7173 129.406C32.7171 129.467 32.7396 129.525 32.7803 129.569C32.8209 129.614 32.8767 129.641 32.9365 129.646C36.4529 129.793 50.473 134.87 55.4097 149.159C55.4287 149.194 55.4563 149.224 55.4898 149.246C55.5233 149.268 55.5617 149.28 55.6015 149.283Z" fill="white"/>
<path d="M56.9212 150.085C56.8854 150.412 56.7665 150.724 56.5761 150.992C56.3857 151.259 56.1301 151.473 55.8341 151.612C55.538 151.751 55.2115 151.81 54.8859 151.785C54.5604 151.759 54.2469 151.65 53.9756 151.466C50.103 148.85 44.3351 147.155 34.8864 148.68C29.4976 149.55 27.0498 148.242 26.2095 145.971C25.2688 143.447 28.1276 141.457 31.201 140.724C41.6727 138.227 50.4318 141.839 56.9303 150.103L56.9212 150.085Z" fill="#CCFF01"/>
<path d="M56.1999 151.296C56.2317 151.3 56.2642 151.298 56.295 151.288C56.3258 151.279 56.3541 151.262 56.378 151.241C56.4198 151.198 56.4432 151.14 56.4432 151.079C56.4432 151.019 56.4198 150.961 56.378 150.918C48.6144 142.064 35.0282 141.977 29.5892 144.418C29.5378 144.446 29.4986 144.492 29.4797 144.547C29.4608 144.603 29.4636 144.663 29.4874 144.717C29.5113 144.77 29.5545 144.812 29.6082 144.835C29.6619 144.857 29.722 144.858 29.7764 144.838C35.1059 142.447 48.4409 142.534 56.0354 151.222C56.0563 151.245 56.0817 151.264 56.11 151.276C56.1383 151.289 56.1689 151.296 56.1999 151.296Z" fill="white"/>
<path d="M143.201 34.3692L143.128 34.3323L125.719 24.2256L125.614 24.175C117.481 20.0291 106.63 21.2775 94.9574 28.8874C71.5115 44.181 53.6462 79.384 55.0528 107.516C55.7515 121.534 61.1129 131.147 69.2098 135.376L69.2783 135.413L86.6915 145.524L86.7737 145.57C94.9072 149.716 105.767 148.486 117.449 140.867C140.895 125.573 158.76 90.3705 157.353 62.2385C156.664 48.2117 151.302 38.5979 143.201 34.3692Z" fill="#2F3612"/>
<path d="M86.0934 145.197L69.3013 135.404L69.2191 135.353C61.1222 131.115 55.7654 121.501 55.0621 107.502C54.4364 94.9538 57.6469 81.0099 63.465 68.061L63.5791 67.7754L80.8781 78.1677C75.0509 91.1166 71.8496 105.06 72.4752 117.609C73.1374 131.331 78.2842 140.83 86.0934 145.197Z" fill="#1D220A"/>
<path d="M117.458 140.858C140.904 125.564 158.769 90.3613 157.362 62.2293C155.956 34.0974 135.807 23.6959 112.361 38.9895C88.9154 54.2831 71.0456 89.486 72.4522 117.613C73.8587 145.741 94.012 156.151 117.458 140.858Z" fill="#3E461E"/>
<path d="M137.314 32.1851L107.927 93.2535L101.602 86.3438C99.7159 84.3631 97.1351 83.2076 94.4138 83.1253C91.6924 83.043 89.0476 84.0406 87.0474 85.9037C85.0473 87.7669 83.8513 90.347 83.7164 93.0899C83.5815 95.8327 84.5184 98.5196 86.3259 100.573L102.99 118.783C104.823 120.791 107.362 121.995 110.064 122.136C110.256 122.136 110.448 122.136 110.64 122.136C111.144 122.136 111.647 122.099 112.147 122.026C113.824 121.779 115.416 121.122 116.784 120.112C118.151 119.102 119.253 117.769 119.992 116.231L153.695 46.2119C150.238 38.4361 144.484 33.6177 137.314 32.1851Z" fill="#576718"/>
<path d="M161.181 12.0737C160.998 11.9677 160.806 11.8664 160.614 11.7743C158.46 10.7215 155.98 10.5735 153.719 11.3628C151.457 12.1521 149.597 13.8143 148.549 15.9846L111.156 93.678L109.028 91.3747C108.414 90.6978 107.699 90.1212 106.909 89.6657C105.795 89.0208 101.054 86.2523 100.287 85.8054C98.417 84.7141 96.221 84.3354 94.0978 84.7381C91.9745 85.1407 90.0648 86.298 88.7153 87.9998C87.3658 89.7016 86.666 91.8351 86.743 94.0129C86.82 96.1908 87.6687 98.2686 89.135 99.8691L105.799 118.074C106.424 118.758 107.149 119.341 107.95 119.801C109.037 120.423 113.759 123.187 114.535 123.639C115.609 124.266 116.8 124.663 118.033 124.806C119.265 124.948 120.514 124.833 121.701 124.466C122.887 124.1 123.986 123.491 124.929 122.678C125.872 121.864 126.639 120.863 127.181 119.737L171.419 27.8233C172.414 25.7518 172.595 23.3775 171.927 21.1767C171.259 18.9759 169.79 17.1113 167.816 15.957L161.181 12.0737Z" fill="#CCFF01"/>
<path opacity="0.15" d="M161.181 12.0737C160.998 11.9677 160.806 11.8664 160.614 11.7743C158.46 10.7215 155.98 10.5735 153.719 11.3628C151.457 12.1521 149.597 13.8143 148.549 15.9846L111.156 93.678L109.028 91.3747C108.414 90.6978 107.699 90.1212 106.909 89.6657C105.795 89.0208 101.054 86.2523 100.287 85.8054C98.417 84.7141 96.221 84.3354 94.0978 84.7381C91.9745 85.1407 90.0648 86.298 88.7153 87.9998C87.3658 89.7016 86.666 91.8351 86.743 94.0129C86.82 96.1908 87.6687 98.2686 89.135 99.8691L105.799 118.074C106.424 118.758 107.149 119.341 107.95 119.801C109.037 120.423 113.759 123.187 114.535 123.639C115.609 124.266 116.8 124.663 118.033 124.806C119.265 124.948 120.514 124.833 121.701 124.466C122.887 124.1 123.986 123.491 124.929 122.678C125.872 121.864 126.639 120.863 127.181 119.737L171.419 27.8233C172.414 25.7518 172.595 23.3775 171.927 21.1767C171.259 18.9759 169.79 17.1113 167.816 15.957L161.181 12.0737Z" fill="black"/>
<path opacity="0.15" d="M114.512 123.62C113.745 123.159 109.032 120.395 107.931 119.783C107.131 119.321 106.405 118.739 105.78 118.055L89.1162 99.8503C88.3814 99.0416 87.7981 98.1051 87.3945 97.0864L94.0209 100.942C94.4227 101.964 95.0097 102.901 95.7518 103.706L112.411 121.911C113.024 122.582 113.732 123.158 114.512 123.62Z" fill="black"/>
<path opacity="0.15" d="M157.272 17.0438C156.401 17.8319 155.691 18.7831 155.18 19.8446L116.719 99.7583L111.156 93.6777L148.549 15.9844C149.059 14.921 149.771 13.9693 150.645 13.1836L157.272 17.0438Z" fill="black"/>
<path d="M167.245 15.634C165.091 14.5837 162.611 14.437 160.35 15.2261C158.089 16.0152 156.23 17.6757 155.179 19.8443L116.718 99.758L109.032 91.3557C107.387 89.6704 105.157 88.6969 102.813 88.6414C100.469 88.586 98.1954 89.453 96.4741 91.0587C94.7528 92.6645 93.7186 94.883 93.5906 97.2444C93.4626 99.6059 94.2508 101.925 95.7883 103.71L112.448 121.92C113.445 123.008 114.691 123.835 116.076 124.327C117.462 124.82 118.946 124.964 120.4 124.747C121.853 124.53 123.232 123.959 124.417 123.082C125.602 122.206 126.557 121.051 127.199 119.718L171.437 27.8044C172.48 25.6295 172.624 23.1261 171.838 20.8442C171.052 18.5622 169.4 16.6883 167.245 15.634Z" fill="#CCFF01"/>
<g opacity="0.25">
<path d="M138.985 11.7556L136.423 12.5341L134.574 6.30145L137.127 5.52295L138.985 11.7556Z" fill="#D9D9D9"/>
<path d="M146.987 6.21866C147.009 6.47159 146.95 6.72502 146.819 6.94208C146.689 7.15914 146.493 7.32851 146.26 7.42557C146.424 7.61701 146.546 7.84161 146.617 8.0843C146.767 8.54495 146.375 9.2175 145.607 9.46625L139.748 11.2444L138.022 5.45859C138.022 5.45859 139.018 2.89737 139.068 2.51043C139.118 2.12348 138.529 0.704677 138.451 0.437499C138.374 0.170322 139.314 -0.175169 140.068 0.128861C140.251 0.200662 140.415 0.314173 140.547 0.46053C140.815 0.751562 141.041 1.07869 141.219 1.4325C141.465 1.94112 141.587 2.50185 141.575 3.06781L145.11 1.97146C145.358 1.89057 145.626 1.90035 145.868 1.9991C146.003 2.05498 146.126 2.13934 146.226 2.24656C146.327 2.35378 146.404 2.48142 146.452 2.62098C146.506 2.81193 146.506 3.01403 146.453 3.20503C146.399 3.39603 146.295 3.56852 146.151 3.70351C146.36 3.68638 146.57 3.7406 146.745 3.8575C146.921 3.9744 147.052 4.14724 147.119 4.34842C147.173 4.5854 147.144 4.83375 147.037 5.05182C146.931 5.26988 146.753 5.4444 146.534 5.54611C146.763 5.7059 146.924 5.94563 146.987 6.21866Z" fill="#D9D9D9"/>
<path d="M166.062 73.3032L162.779 72.5062L164.692 64.5186L167.971 65.3109L166.062 73.3032Z" fill="#D9D9D9"/>
<path d="M178.287 72.4004C178.151 72.6898 177.927 72.9281 177.648 73.0812C177.369 73.2343 177.049 73.2943 176.735 73.2526C176.794 73.567 176.786 73.8905 176.712 74.2016C176.566 74.8234 175.73 75.2795 174.744 75.04L167.227 73.1973L169.003 65.7763C169.003 65.7763 171.702 63.6204 171.999 63.2289C172.296 62.8373 172.551 60.9256 172.638 60.5709C172.725 60.2162 173.972 60.4557 174.597 61.2711C174.749 61.4692 174.855 61.6989 174.908 61.9436C175.019 62.4327 175.059 62.9355 175.027 63.4362C174.976 64.1491 174.757 64.8395 174.387 65.4492L178.927 66.5502C179.249 66.619 179.537 66.8 179.74 67.0615C179.852 67.2107 179.932 67.3823 179.974 67.565C180.015 67.7476 180.018 67.9372 179.982 68.121C179.921 68.3631 179.794 68.5833 179.616 68.7567C179.437 68.9301 179.214 69.0497 178.972 69.1022C179.213 69.2208 179.406 69.4175 179.522 69.6607C179.638 69.9038 179.67 70.1793 179.612 70.4426C179.519 70.7338 179.33 70.9841 179.077 71.1518C178.823 71.3195 178.52 71.3944 178.219 71.364C178.374 71.6873 178.399 72.0591 178.287 72.4004Z" fill="#D9D9D9"/>
<path d="M38.7124 56.0846L42.2973 57.1763L44.8913 48.4516L41.3109 47.3599L38.7124 56.0846Z" fill="#D9D9D9"/>
<path d="M27.5102 48.3362C27.482 48.6897 27.5653 49.043 27.7482 49.3459C27.9311 49.6487 28.2042 49.8854 28.5286 50.0222C28.2995 50.2908 28.1284 50.6046 28.0262 50.9435C27.8207 51.616 28.3687 52.5281 29.4419 52.8506L37.6621 55.3427L40.078 47.2353C40.078 47.2353 38.6851 43.6514 38.6166 43.0894C38.5481 42.5274 39.3701 40.5604 39.4797 40.1873C39.5893 39.8142 38.265 39.3259 37.1963 39.7267C36.9428 39.8281 36.7149 39.9855 36.5296 40.1873C36.151 40.5908 35.8339 41.0487 35.5888 41.5462C35.2377 42.2612 35.0652 43.0519 35.0865 43.8495L30.1315 42.3478C29.7839 42.2333 29.4076 42.2447 29.0674 42.38C28.8427 42.4692 28.6447 42.6157 28.4927 42.8051C28.3408 42.9945 28.2402 43.2205 28.2006 43.4608C28.1611 43.7012 28.1839 43.9478 28.267 44.1765C28.3501 44.4053 28.4906 44.6085 28.6747 44.7662C28.3766 44.7404 28.0787 44.8175 27.8298 44.9849C27.5809 45.1523 27.3957 45.4 27.3047 45.6875C27.2287 46.0192 27.2686 46.3671 27.4175 46.6726C27.5665 46.9781 27.8153 47.2224 28.1221 47.3642C27.8032 47.5981 27.5844 47.9456 27.5102 48.3362Z" fill="#D9D9D9"/>
</g>
</g>
<defs>
<clipPath id="clip0_123_3095">
<rect width="180" height="190" fill="white"/>
</clipPath>
</defs>
</svg>
