<svg width="32" height="32" viewBox="0 0 32 32" fill="none" xmlns="http://www.w3.org/2000/svg">
<path d="M16.0001 1C9.4501 1 3.9001 5.2 1.8501 11H30.1501C28.1001 5.2 22.5501 1 16.0001 1Z" fill="#ED4C5C"/>
<path d="M16.0001 31C22.5501 31 28.1001 26.85 30.1501 21H1.8501C3.9001 26.85 9.4501 31 16.0001 31Z" fill="#3E4347"/>
<path d="M1.85 11C1.3 12.55 1 14.25 1 16C1 17.75 1.3 19.45 1.85 21H30.15C30.7 19.45 31 17.75 31 16C31 14.25 30.7 12.55 30.15 11H1.85Z" fill="#F9F9F9"/>
<path d="M15.2999 12.5502C15.4499 12.4502 15.5499 12.5502 15.6499 12.6502C15.6999 12.7502 15.6999 13.0502 15.5999 13.4002C15.5499 13.6002 15.3999 13.8002 15.2999 13.9502C15.4999 13.9502 15.7499 13.9002 15.9999 13.8002C16.2499 13.9002 16.4499 13.9502 16.6999 13.9502C16.5999 13.7502 16.4999 13.3502 16.5499 13.0502C16.5499 12.6002 16.4999 12.4502 16.3999 12.3502C16.2999 12.2502 16.0499 12.2002 15.8999 12.2002C15.7999 12.2002 15.7999 12.2502 15.7999 12.2502C15.5999 12.2002 15.4499 12.2002 15.3499 12.2502C15.2499 12.3502 15.2499 12.6002 15.2999 12.5502Z" fill="white"/>
<path d="M18.6501 14.0501C18.5501 13.5001 18.0001 13.6501 17.5501 13.9001C17.3501 14.0001 17.1501 14.1001 16.9501 14.1001H16.8001C16.5501 14.1001 16.2501 14.0501 16.0001 13.9501C15.7501 14.0501 15.4501 14.1001 15.2001 14.1001H15.1001C14.8501 14.1001 14.6501 14.0001 14.4501 13.8501C14.0501 13.6501 13.5001 13.5001 13.3501 14.0001C13.4501 13.9501 13.5501 13.8501 13.6001 13.8501L13.4001 18.6501L13.5001 18.5501L13.7001 13.9001C13.7501 13.9501 13.9501 14.1501 14.0001 14.1501L13.8501 18.2001L14.0001 18.0501L14.1501 14.2001C14.2001 14.2501 14.3501 14.3501 14.4001 14.4001L14.2501 17.7501L14.6501 17.4001L15.0501 16.0501C14.7001 15.3001 14.7501 14.6501 14.7501 14.6501H14.8501C15.1001 14.6501 15.6501 14.5001 15.9001 14.3501C15.9501 14.3501 15.9501 14.3001 16.0001 14.3001C16.0001 14.3501 16.0501 14.3501 16.1001 14.4001C16.3501 14.5501 16.9001 14.7001 17.1501 14.7001H17.2501C17.2501 14.7001 17.3001 15.3501 16.9501 16.1001L17.3001 17.4001L17.7001 17.7501L17.5501 14.4501C17.6001 14.4001 17.7001 14.3001 17.8001 14.2501L17.9501 18.0001L18.1001 18.1501L17.9501 14.1501C18.0001 14.1001 18.2001 13.9501 18.2501 13.9001L18.4501 18.5001L18.5501 18.6001L18.3501 13.8501C18.4001 13.9001 18.5501 14.0001 18.6501 14.0501Z" fill="white"/>
<path d="M15.5503 14.8501V16.8001C15.5503 16.8001 15.5503 16.8501 15.6003 16.8501C15.6503 16.9501 15.7503 17.0001 15.8003 17.1001L15.9503 17.2501L16.1003 17.1001L16.3503 16.8501V14.9501C16.2003 14.9001 16.0503 14.8501 15.9503 14.7501C15.9003 14.7001 15.7503 14.7501 15.5503 14.8501Z" fill="white"/>
<path d="M18.15 18.9502C18.15 18.7002 17.9 18.7002 17.7 18.7502C17.65 18.7502 17.65 18.7502 17.6 18.8002L17.3 17.7002L18.95 19.3002L18.75 14.1002C18.7 13.3002 18.05 13.5002 17.6 13.8002C17.35 13.9502 17.15 14.0502 16.9 14.0502C16.55 13.4502 16.75 12.6502 16.5 12.4502C16.4 12.3502 16.05 12.2002 15.8 12.2002C15.65 12.2002 15.7 12.3002 15.7 12.3002C15.45 12.2502 15.25 12.2502 15.15 12.3502C15.05 12.4002 15.15 12.9002 15.2 12.8002C15.35 12.6502 15.4 12.7002 15.5 12.8502C15.6 13.0002 15.4 13.6002 15.15 14.0502C14.85 14.0502 14.6 13.9502 14.35 13.8002C13.85 13.5002 13.2 13.3502 13.2 14.1002L13 19.2502L14.65 17.7002L14.35 18.7502C14.3 18.7502 14.3 18.7502 14.25 18.7002C14.05 18.6502 13.8 18.6502 13.8 18.9002C13.5 18.8502 13.4 19.3002 13.7 19.4002C13.7 19.5502 13.7 19.6502 13.9 19.6502C14.35 19.8002 15.15 19.8502 15.95 19.8502C16.75 19.8502 17.55 19.8002 18 19.6502C18.2 19.6002 18.2 19.5002 18.2 19.4002C18.6 19.3002 18.45 18.8502 18.15 18.9502ZM15.6 16.8002C15.6 16.7502 15.6 16.7502 15.6 16.8002L15.55 16.7502V14.8502C15.75 14.8002 15.9 14.7502 16 14.6502C16.1 14.7502 16.25 14.8002 16.4 14.8502V16.7502C16.3 16.8502 16.25 16.9502 16.15 17.0002L16 17.1502L15.85 17.0002C15.75 16.9502 15.7 16.8502 15.6 16.8002ZM15.6 13.4502C15.7 13.1002 15.7 12.8002 15.65 12.7002C15.55 12.6002 15.45 12.5002 15.3 12.6002C15.25 12.6502 15.25 12.4002 15.35 12.3502C15.45 12.3002 15.6 12.3002 15.8 12.3502C15.8 12.3502 15.8 12.2502 15.9 12.3002C16.05 12.3002 16.35 12.4002 16.4 12.4502C16.45 12.5002 16.55 12.7002 16.55 13.1502C16.55 13.4502 16.6 13.8502 16.7 14.0502C16.5 14.0502 16.25 14.0002 16 13.9002C15.75 14.0002 15.55 14.0502 15.3 14.0502C15.4 13.8502 15.55 13.6502 15.6 13.4502ZM14.3 17.9002L14.45 14.5502C14.4 14.5002 14.3 14.4002 14.2 14.3502L14 18.1502L13.85 18.3002L14 14.2502C13.95 14.2002 13.75 14.0502 13.7 14.0002L13.5 18.6502L13.4 18.7502L13.6 13.9502C13.55 13.9502 13.4 14.0002 13.35 14.1002C13.5 13.6002 14.05 13.7502 14.45 14.0002C14.65 14.1502 14.9 14.2002 15.1 14.2502H15.2C15.45 14.2502 15.7 14.2002 16 14.1002C16.3 14.2002 16.55 14.2502 16.8 14.2502H16.95C17.15 14.2002 17.35 14.1502 17.55 14.0502C18 13.8002 18.55 13.6502 18.65 14.2002C18.55 14.1502 18.4 14.0502 18.35 14.0502L18.55 18.8002L18.45 18.7002L18.25 14.0002C18.2 14.0502 18 14.2502 17.95 14.2502L18.1 18.2502L17.95 18.1002L17.8 14.3502C17.75 14.4002 17.6 14.5002 17.55 14.5502L17.7 17.8502L17.3 17.5002L16.95 16.2002C17.3 15.4502 17.25 14.8002 17.25 14.8002H17.15C16.9 14.8002 16.35 14.7002 16.1 14.5002C16.05 14.5002 16.05 14.4502 16 14.4002C16 14.4002 15.95 14.4502 15.9 14.4502C15.65 14.6002 15.1 14.7502 14.85 14.7502H14.75C14.75 14.7502 14.7 15.4002 15.05 16.1502L14.65 17.5002L14.3 17.9002ZM16 18.9002H15.45L15.8 17.2002C15.85 17.2502 15.9 17.3002 16 17.3502C16.05 17.3002 16.15 17.2502 16.2 17.2002L16.6 18.9002H16Z" fill="#C09300"/>
</svg>
