<svg width="32" height="32" viewBox="0 0 32 32" fill="none" xmlns="http://www.w3.org/2000/svg">
<path d="M16.0001 1C9.4501 1 3.9001 5.15 1.8501 11H30.1501C28.1001 5.15 22.5501 1 16.0001 1Z" fill="#C94747"/>
<path d="M16.0001 31C22.5501 31 28.1001 26.85 30.1501 21H1.8501C3.9001 26.85 9.4501 31 16.0001 31Z" fill="#699635"/>
<path d="M1.85 11C1.3 12.55 1 14.25 1 16C1 17.75 1.3 19.45 1.85 21H30.15C30.7 19.45 31 17.75 31 16C31 14.25 30.7 12.55 30.15 11H1.85Z" fill="#FFCE31"/>
<path d="M16 18.65L19.1 21L17.9 17.2L21 14.75H17.2L16 11L14.85 14.75H11L14.1 17.2L12.9 21L16 18.65Z" fill="#3E4347"/>
</svg>
