<svg width="49" height="28" viewBox="0 0 49 28" fill="none" xmlns="http://www.w3.org/2000/svg">
<circle cx="35" cy="14" r="14" fill="#D9D9D9"/>
<path d="M35.0001 1.88477C30.0327 1.88477 25.752 4.87323 23.8943 9.154H46.1058C44.2481 4.87323 39.9674 1.88477 35.0001 1.88477Z" fill="#3E4347"/>
<path d="M35.0001 26.1154C39.9674 26.1154 44.2481 23.127 46.1058 18.8462H23.8943C25.752 23.127 30.0327 26.1154 35.0001 26.1154Z" fill="#75A843"/>
<path d="M47.1153 14.0003C47.1153 12.8695 46.9538 11.7791 46.6711 10.7695H23.3288C23.0461 11.7791 22.8845 12.8695 22.8845 14.0003C22.8845 15.1311 23.0461 16.2215 23.3288 17.2311H46.6711C46.9538 16.2215 47.1153 15.1311 47.1153 14.0003Z" fill="#C94747"/>
<path d="M23.5712 18.0389C23.6519 18.3216 23.7731 18.5639 23.8942 18.8466H46.1058C46.2269 18.5639 46.3481 18.3216 46.4289 18.0389C46.5096 17.7562 46.5904 17.5139 46.6712 17.2312H23.3289C23.4096 17.5139 23.4904 17.7562 23.5712 18.0389ZM46.4289 9.96199C46.3481 9.6793 46.2269 9.43699 46.1058 9.1543H23.8942C23.7731 9.43699 23.6519 9.6793 23.5712 9.96199C23.4904 10.2447 23.4096 10.487 23.3289 10.7697H46.6712C46.5904 10.487 46.5096 10.2447 46.4289 9.96199Z" fill="white"/>
<path d="M30.2346 22.1983L30.5173 22.3599L38.3115 8.87141C38.7558 8.75026 38.9981 8.30602 39.2808 7.90218C39.4423 7.61949 40.1289 6.44833 40.4115 4.9541C39.2404 5.96372 38.5942 7.09449 38.4327 7.41756C38.1904 7.86179 37.9481 8.26564 38.0692 8.75026L30.2346 22.1983Z" fill="white"/>
<path d="M39.7653 22.1983L39.4826 22.3599L31.6884 8.87141C31.2441 8.75026 31.0018 8.30602 30.7191 7.90218C30.5576 7.61949 29.8711 6.44833 29.5884 4.9541C30.7595 5.96372 31.4057 7.09449 31.5672 7.41756C31.8095 7.86179 32.0518 8.26564 31.9307 8.75026L39.7653 22.1983Z" fill="white"/>
<path d="M38.2308 14.0003C38.2308 18.4426 35.0001 22.0772 35.0001 22.0772C35.0001 22.0772 31.7693 18.4426 31.7693 14.0003C31.7693 9.55796 35.0001 5.92334 35.0001 5.92334C35.0001 5.92334 38.2308 9.55796 38.2308 14.0003Z" fill="#C94747"/>
<path d="M32.6173 17.2311C33.3039 16.5445 33.7885 15.3734 33.7885 14.0003C33.7885 12.6272 33.3442 11.4561 32.6173 10.7695C32.3346 11.6984 32.1731 12.8291 32.1731 14.0003C32.1731 15.1715 32.3346 16.3022 32.6173 17.2311ZM37.3827 10.7695C36.6962 11.4561 36.2116 12.6272 36.2116 14.0003C36.2116 15.3734 36.6558 16.5445 37.3827 17.2311C37.6654 16.3022 37.8269 15.1715 37.8269 14.0003C37.8269 12.8291 37.6654 11.6984 37.3827 10.7695Z" fill="#3E4347"/>
<path d="M34.9999 14.9697C35.3568 14.9697 35.6461 14.5358 35.6461 14.0005C35.6461 13.4652 35.3568 13.0312 34.9999 13.0312C34.6431 13.0312 34.3538 13.4652 34.3538 14.0005C34.3538 14.5358 34.6431 14.9697 34.9999 14.9697Z" fill="white"/>
<path d="M34.7576 6.20605C34.5153 6.89259 34.3538 8.1849 34.3538 9.59836C34.3538 11.0522 34.5153 12.3041 34.7576 12.9907C34.8384 11.9811 34.9191 10.8503 34.9191 9.59836C34.9191 8.38682 34.8788 7.21567 34.7576 6.20605ZM35.2422 6.20605C35.4845 6.89259 35.6461 8.1849 35.6461 9.59836C35.6461 11.0522 35.4845 12.3041 35.2422 12.9907C35.1615 11.9811 35.0807 10.8503 35.0807 9.59836C35.0807 8.38682 35.1211 7.21567 35.2422 6.20605ZM34.7576 14.9695C34.5153 15.6561 34.3538 16.9484 34.3538 18.3618C34.3538 19.8157 34.5153 21.0676 34.7576 21.7541C34.8384 20.7445 34.9191 19.6137 34.9191 18.3618C34.9191 17.1503 34.8788 15.9791 34.7576 14.9695ZM35.2422 14.9695C35.4845 15.6561 35.6461 16.9484 35.6461 18.3618C35.6461 19.8157 35.4845 21.0676 35.2422 21.7541C35.1615 20.7445 35.0807 19.6137 35.0807 18.3618C35.0807 17.1503 35.1211 15.9791 35.2422 14.9695Z" fill="white"/>
<circle cx="14" cy="14" r="14" fill="#D9D9D9"/>
<path d="M13.9999 1.88477C8.70951 1.88477 4.22681 5.23669 2.57104 9.96169H25.4287C23.773 5.23669 19.2903 1.88477 13.9999 1.88477Z" fill="#C94747"/>
<path d="M13.9999 26.1155C19.2903 26.1155 23.773 22.7636 25.4287 18.0386H2.57104C4.22681 22.7636 8.70951 26.1155 13.9999 26.1155Z" fill="#699635"/>
<path d="M2.57106 9.96191C2.12683 11.2138 1.88452 12.5869 1.88452 14.0004C1.88452 15.4138 2.12683 16.7869 2.57106 18.0388H25.4288C25.873 16.7869 26.1153 15.4138 26.1153 14.0004C26.1153 12.5869 25.873 11.2138 25.4288 9.96191H2.57106Z" fill="#FFCE31"/>
<path d="M13.9999 16.1408L16.5037 18.0388L15.5345 14.9696L18.0383 12.9908H14.9691L13.9999 9.96191L13.071 12.9908H9.96143L12.4653 14.9696L11.496 18.0388L13.9999 16.1408Z" fill="#3E4347"/>
</svg>
