<svg width="32" height="32" viewBox="0 0 32 32" fill="none" xmlns="http://www.w3.org/2000/svg">
<path d="M16 1C9.85 1 4.55 4.7 2.25 10H29.75C27.45 4.7 22.15 1 16 1Z" fill="#3E4347"/>
<path d="M16 31C22.15 31 27.45 27.3 29.75 22H2.25C4.55 27.3 9.85 31 16 31Z" fill="#75A843"/>
<path d="M31 16C31 14.6 30.8 13.25 30.45 12H1.55C1.2 13.25 1 14.6 1 16C1 17.4 1.2 18.75 1.55 20H30.45C30.8 18.75 31 17.4 31 16Z" fill="#C94747"/>
<path d="M1.8498 21C1.9498 21.35 2.0998 21.65 2.2498 22H29.7498C29.8998 21.65 30.0498 21.35 30.1498 21C30.2498 20.65 30.3498 20.35 30.4498 20H1.5498C1.6498 20.35 1.7498 20.65 1.8498 21ZM30.1498 11C30.0498 10.65 29.8998 10.35 29.7498 10H2.2498C2.0998 10.35 1.9498 10.65 1.8498 11C1.7498 11.35 1.6498 11.65 1.5498 12H30.4498C30.3498 11.65 30.2498 11.35 30.1498 11Z" fill="white"/>
<path d="M10.0996 26.1498L10.4496 26.3498L20.0996 9.6498C20.6496 9.4998 20.9496 8.9498 21.2996 8.4498C21.4996 8.0998 22.3496 6.6498 22.6996 4.7998C21.2496 6.0498 20.4496 7.4498 20.2496 7.8498C19.9496 8.3998 19.6496 8.8998 19.7996 9.4998L10.0996 26.1498Z" fill="white"/>
<path d="M21.8998 26.1498L21.5498 26.3498L11.8998 9.6498C11.3498 9.4998 11.0498 8.9498 10.6998 8.4498C10.4998 8.0998 9.6498 6.6498 9.2998 4.7998C10.7498 6.0498 11.5498 7.4498 11.7498 7.8498C12.0498 8.3998 12.3498 8.8998 12.1998 9.4998L21.8998 26.1498Z" fill="white"/>
<path d="M20 16C20 21.5 16 26 16 26C16 26 12 21.5 12 16C12 10.5 16 6 16 6C16 6 20 10.5 20 16Z" fill="#C94747"/>
<path d="M13.05 20C13.9 19.15 14.5 17.7 14.5 16C14.5 14.3 13.95 12.85 13.05 12C12.7 13.15 12.5 14.55 12.5 16C12.5 17.45 12.7 18.85 13.05 20ZM18.95 12C18.1 12.85 17.5 14.3 17.5 16C17.5 17.7 18.05 19.15 18.95 20C19.3 18.85 19.5 17.45 19.5 16C19.5 14.55 19.3 13.15 18.95 12Z" fill="#3E4347"/>
<path d="M16.0002 17.2003C16.442 17.2003 16.8002 16.663 16.8002 16.0003C16.8002 15.3376 16.442 14.8003 16.0002 14.8003C15.5584 14.8003 15.2002 15.3376 15.2002 16.0003C15.2002 16.663 15.5584 17.2003 16.0002 17.2003Z" fill="white"/>
<path d="M15.7002 6.3501C15.4002 7.2001 15.2002 8.8001 15.2002 10.5501C15.2002 12.3501 15.4002 13.9001 15.7002 14.7501C15.8002 13.5001 15.9002 12.1001 15.9002 10.5501C15.9002 9.0501 15.8502 7.6001 15.7002 6.3501ZM16.3002 6.3501C16.6002 7.2001 16.8002 8.8001 16.8002 10.5501C16.8002 12.3501 16.6002 13.9001 16.3002 14.7501C16.2002 13.5001 16.1002 12.1001 16.1002 10.5501C16.1002 9.0501 16.1502 7.6001 16.3002 6.3501ZM15.7002 17.2001C15.4002 18.0501 15.2002 19.6501 15.2002 21.4001C15.2002 23.2001 15.4002 24.7501 15.7002 25.6001C15.8002 24.3501 15.9002 22.9501 15.9002 21.4001C15.9002 19.9001 15.8502 18.4501 15.7002 17.2001ZM16.3002 17.2001C16.6002 18.0501 16.8002 19.6501 16.8002 21.4001C16.8002 23.2001 16.6002 24.7501 16.3002 25.6001C16.2002 24.3501 16.1002 22.9501 16.1002 21.4001C16.1002 19.9001 16.1502 18.4501 16.3002 17.2001Z" fill="white"/>
</svg>
