<svg width="49" height="28" viewBox="0 0 49 28" fill="none" xmlns="http://www.w3.org/2000/svg">
<circle cx="35" cy="14" r="14" fill="#D9D9D9"/>
<path d="M34.9999 1.88477C29.7095 1.88477 25.2268 5.23669 23.571 9.96169H46.4287C44.773 5.23669 40.2903 1.88477 34.9999 1.88477Z" fill="#C94747"/>
<path d="M34.9999 26.1155C40.2903 26.1155 44.773 22.7636 46.4287 18.0386H23.571C25.2268 22.7636 29.7095 26.1155 34.9999 26.1155Z" fill="#699635"/>
<path d="M23.5711 9.96191C23.1268 11.2138 22.8845 12.5869 22.8845 14.0004C22.8845 15.4138 23.1268 16.7869 23.5711 18.0388H46.4288C46.873 16.7869 47.1153 15.4138 47.1153 14.0004C47.1153 12.5869 46.873 11.2138 46.4288 9.96191H23.5711Z" fill="#FFCE31"/>
<path d="M34.9999 16.1408L37.5037 18.0388L36.5345 14.9696L39.0383 12.9908H35.9691L34.9999 9.96191L34.071 12.9908H30.9614L33.4653 14.9696L32.496 18.0388L34.9999 16.1408Z" fill="#3E4347"/>
<circle cx="14" cy="14" r="14" fill="#D9D9D9"/>
<path d="M1.88452 14.0001C1.88452 19.2905 5.27683 23.7732 9.96144 25.429V2.57129C5.27683 4.22706 1.88452 8.70975 1.88452 14.0001ZM26.1153 14.0001C26.1153 8.70975 22.7634 4.22706 18.0384 2.57129V25.429C22.7634 23.7732 26.1153 19.2905 26.1153 14.0001Z" fill="#83BF4F"/>
<path d="M9.96143 25.429C11.2133 25.8732 12.5864 26.1155 13.9999 26.1155C15.4133 26.1155 16.7864 25.8732 18.0383 25.429V2.5713C16.7864 2.12707 15.4133 1.88477 13.9999 1.88477C12.5864 1.88477 11.2133 2.12707 9.96143 2.5713V25.429Z" fill="#F9F9F9"/>
</svg>
