<svg width="32" height="32" viewBox="0 0 32 32" fill="none" xmlns="http://www.w3.org/2000/svg">
<path d="M16 1C7.7 1 1 7.7 1 16H31C31 7.7 24.3 1 16 1Z" fill="#42ADE2"/>
<path d="M29 23.5H3C5.6 28 10.45 31 16 31C21.55 31 26.4 28 29 23.5Z" fill="#699635"/>
<path d="M29 23.5002C30.3 21.3002 31 18.7502 31 16.0002H1C1 18.7502 1.75 21.3002 3 23.5002H29ZM23.1 9.7502L27.45 9.5002L23.1 9.2502L27.25 7.85019L23 8.7502L26.6 6.3502L22.75 8.3002L25.6 5.0502L22.35 7.9502L24.3 4.0502L21.95 7.7002L22.8 3.4502L21.45 7.5502L21.2 3.2002L20.95 7.5502L19.55 3.4502L20.45 7.7002L18.05 4.0502L20 7.9502L16.75 5.0502L19.65 8.3002L15.75 6.3502L19.4 8.7502L15.15 7.85019L19.25 9.2502L14.95 9.5002L19.25 9.7502L15.15 11.1002L19.4 10.2002L15.75 12.6002L19.65 10.6502L16.75 13.9002L20 11.0002L18.05 14.9002L20.45 11.2502L19.55 15.5002L20.95 11.4002L21.2 15.7502L21.45 11.4002L22.8 15.5002L21.95 11.2502L24.3 14.9002L22.35 11.0002L25.6 13.9002L22.75 10.6502L26.6 12.6002L23 10.2002L27.25 11.1002L23.1 9.7502Z" fill="#FFE62E"/>
<path d="M21.2001 11.3504C22.2218 11.3504 23.0501 10.5221 23.0501 9.50039C23.0501 8.47866 22.2218 7.65039 21.2001 7.65039C20.1784 7.65039 19.3501 8.47866 19.3501 9.50039C19.3501 10.5221 20.1784 11.3504 21.2001 11.3504Z" fill="#FFE62E"/>
<path d="M21.1999 11.4999C20.0999 11.4999 19.1499 10.5999 19.1499 9.4499C19.1499 8.3499 20.0499 7.3999 21.1999 7.3999C22.3499 7.3999 23.2499 8.2999 23.2499 9.4499C23.2499 10.5999 22.2999 11.4999 21.1999 11.4999ZM21.1999 7.7999C20.2999 7.7999 19.5499 8.5499 19.5499 9.4499C19.5499 10.3499 20.2999 11.0999 21.1999 11.0999C22.0999 11.0999 22.8499 10.3499 22.8499 9.4499C22.8499 8.5499 22.0999 7.7999 21.1999 7.7999Z" fill="#42ADE2"/>
</svg>
