<svg width="32" height="32" viewBox="0 0 32 32" fill="none" xmlns="http://www.w3.org/2000/svg">
<path d="M31 16.0001C31 9.4501 26.85 3.9001 21 1.8501V30.1501C26.85 28.1001 31 22.5501 31 16.0001Z" fill="#ED4C5C"/>
<path d="M1 16.0001C1 22.5501 5.2 28.1001 11 30.1501V1.8501C5.2 3.9001 1 9.4501 1 16.0001Z" fill="#699635"/>
<path d="M21 1.85C19.45 1.3 17.75 1 16 1C14.25 1 12.55 1.3 11 1.85V30.15C12.55 30.7 14.25 31 16 31C17.75 31 19.45 30.7 21 30.15V1.85Z" fill="#FFE62E"/>
<path d="M16 18.1L18.65 20L17.65 16.95L20.25 15.05H17L16 12L15 15.05H11.75L14.35 16.95L13.35 20L16 18.1Z" fill="#699635"/>
</svg>
