<svg width="32" height="32" viewBox="0 0 32 32" fill="none" xmlns="http://www.w3.org/2000/svg">
<path d="M30.4501 20.0002C30.8001 18.7502 31.0001 17.4002 31.0001 16.0002C31.0001 14.6002 30.8001 13.2502 30.4501 12.0002H15.8501L7.4001 3.7002C5.4001 5.1002 3.7501 7.0002 2.6001 9.2002L9.5001 16.0002L2.6501 22.8002C3.7501 25.0002 5.4001 26.9002 7.4501 28.3002L15.8501 20.0002H30.4501Z" fill="#699635"/>
<path d="M1.75 11.25C1.25 12.75 1 14.35 1 16C1 17.65 1.25 19.25 1.75 20.75L6.55 16L1.75 11.25Z" fill="#3E4347"/>
<path d="M9.1499 29.3502C11.1999 30.4002 13.5499 31.0002 15.9999 31.0002C22.1499 31.0002 27.4499 27.3002 29.7499 21.9502H16.6999L9.1499 29.3502Z" fill="#428BC1"/>
<path d="M29.7499 10.05C27.4499 4.7 22.1499 1 15.9999 1C13.5499 1 11.1999 1.6 9.1499 2.65L16.6999 10.05H29.7499Z" fill="#ED4C5C"/>
<path d="M30.2499 11.3499C30.0999 10.8999 29.9499 10.4499 29.7499 10.0499H16.6999L9.1499 2.6499C8.7999 2.7999 8.4999 2.9999 8.1499 3.1999C7.8999 3.3499 7.6499 3.5499 7.3999 3.6999L15.8499 11.9999H30.4499C30.3999 11.7999 30.3499 11.5499 30.2499 11.3499Z" fill="white"/>
<path d="M2.6498 9.2002C2.5998 9.3002 2.5498 9.4002 2.4998 9.5502C2.2498 10.1002 1.9998 10.6502 1.7998 11.2502L6.5998 16.0002L1.7998 20.7502C1.9998 21.3502 2.1998 21.9002 2.4998 22.4502C2.5498 22.5502 2.5998 22.6502 2.6498 22.8002L9.4998 16.0002L2.6498 9.2002Z" fill="#FFCE31"/>
<path d="M15.8499 20L7.3999 28.3C7.5499 28.4 7.7499 28.55 7.8999 28.65C8.2999 28.9 8.6999 29.15 9.1499 29.35L16.6999 21.95H29.7499C29.9499 21.45 30.1499 20.95 30.3499 20.4C30.3999 20.25 30.3999 20.15 30.4499 20H15.8499Z" fill="white"/>
</svg>
