<svg width="49" height="28" viewBox="0 0 49 28" fill="none" xmlns="http://www.w3.org/2000/svg">
<circle cx="35" cy="14" r="14" fill="#D9D9D9"/>
<path d="M34.9999 1.88477C29.7095 1.88477 25.2268 5.23669 23.571 9.96169H46.4287C44.773 5.23669 40.2903 1.88477 34.9999 1.88477Z" fill="#C94747"/>
<path d="M34.9999 26.1155C40.2903 26.1155 44.773 22.7636 46.4287 18.0386H23.571C25.2268 22.7636 29.7095 26.1155 34.9999 26.1155Z" fill="#699635"/>
<path d="M23.5711 9.96191C23.1268 11.2138 22.8845 12.5869 22.8845 14.0004C22.8845 15.4138 23.1268 16.7869 23.5711 18.0388H46.4288C46.873 16.7869 47.1153 15.4138 47.1153 14.0004C47.1153 12.5869 46.873 11.2138 46.4288 9.96191H23.5711Z" fill="#FFCE31"/>
<path d="M34.9999 16.1408L37.5037 18.0388L36.5345 14.9696L39.0383 12.9908H35.9691L34.9999 9.96191L34.071 12.9908H30.9614L33.4653 14.9696L32.496 18.0388L34.9999 16.1408Z" fill="#3E4347"/>
<circle cx="14" cy="14" r="14" fill="#D9D9D9"/>
<path d="M25.6712 17.2308C25.9539 16.2212 26.1155 15.1308 26.1155 14C26.1155 12.8693 25.9539 11.7789 25.6712 10.7693H13.8789L7.05392 4.06543C5.43854 5.1962 4.10585 6.73081 3.177 8.50774L8.75008 14L3.21739 19.4924C4.10585 21.2693 5.43854 22.8039 7.09431 23.9347L13.8789 17.2308H25.6712Z" fill="#699635"/>
<path d="M2.49029 10.1636C2.08644 11.3751 1.88452 12.6674 1.88452 14.0001C1.88452 15.3328 2.08644 16.6251 2.49029 17.8367L6.36721 14.0001L2.49029 10.1636Z" fill="#3E4347"/>
<path d="M8.46729 24.7831C10.1231 25.6312 12.0211 26.1158 14 26.1158C18.9673 26.1158 23.2481 23.1273 25.1057 18.8062H14.5654L8.46729 24.7831Z" fill="#428BC1"/>
<path d="M25.1057 9.19438C23.2481 4.87323 18.9673 1.88477 14 1.88477C12.0211 1.88477 10.1231 2.36938 8.46729 3.21746L14.5654 9.19438H25.1057Z" fill="#ED4C5C"/>
<path d="M25.5095 10.2447C25.3883 9.88124 25.2672 9.51777 25.1056 9.1947H14.5652L8.46717 3.21777C8.18448 3.33893 7.94217 3.50047 7.65948 3.662C7.45756 3.78316 7.25563 3.9447 7.05371 4.06585L13.8787 10.7697H25.671C25.6306 10.6082 25.5903 10.4062 25.5095 10.2447Z" fill="white"/>
<path d="M3.2173 8.50781C3.17692 8.58858 3.13653 8.66935 3.09615 8.79051C2.89422 9.23474 2.6923 9.67897 2.53076 10.1636L6.40768 14.0001L2.53076 17.8367C2.6923 18.3213 2.85384 18.7655 3.09615 19.2097C3.13653 19.2905 3.17692 19.3713 3.2173 19.4924L8.74999 14.0001L3.2173 8.50781Z" fill="#FFCE31"/>
<path d="M13.8787 17.231L7.05371 23.9348C7.17486 24.0156 7.3364 24.1367 7.45756 24.2175C7.78063 24.4194 8.10371 24.6213 8.46717 24.7829L14.5652 18.806H25.1056C25.2672 18.4021 25.4287 17.9983 25.5903 17.554C25.6306 17.4329 25.6306 17.3521 25.671 17.231H13.8787Z" fill="white"/>
</svg>
