<svg width="16" height="16" viewBox="0 0 16 16" fill="none" xmlns="http://www.w3.org/2000/svg">
<path d="M11.3332 7.33333V5.33333C11.3332 3.49238 9.84079 2 7.99984 2C6.15889 2 4.6665 3.49238 4.6665 5.33333V7.33333M5.8665 14H10.1332C11.2533 14 11.8133 14 12.2412 13.782C12.6175 13.5903 12.9234 13.2843 13.1152 12.908C13.3332 12.4802 13.3332 11.9201 13.3332 10.8V10.5333C13.3332 9.41323 13.3332 8.85318 13.1152 8.42535C12.9234 8.04903 12.6175 7.74307 12.2412 7.55132C11.8133 7.33333 11.2533 7.33333 10.1332 7.33333H5.8665C4.7464 7.33333 4.18635 7.33333 3.75852 7.55132C3.3822 7.74307 3.07624 8.04903 2.88449 8.42535C2.6665 8.85318 2.6665 9.41323 2.6665 10.5333V10.8C2.6665 11.9201 2.6665 12.4802 2.88449 12.908C3.07624 13.2843 3.3822 13.5903 3.75852 13.782C4.18635 14 4.7464 14 5.8665 14Z" stroke="#98A2B3" stroke-width="1.5" stroke-linecap="round" stroke-linejoin="round"/>
</svg>
