<svg width="16" height="16" viewBox="0 0 16 16" fill="none" xmlns="http://www.w3.org/2000/svg">
<path d="M7.06671 11.0668L11.7667 6.36683L10.8334 5.4335L7.06671 9.20016L5.16671 7.30016L4.23337 8.2335L7.06671 11.0668ZM8.00004 14.6668C7.07782 14.6668 6.21115 14.4917 5.40004 14.1415C4.58893 13.7913 3.88337 13.3164 3.28337 12.7168C2.68337 12.1168 2.20849 11.4113 1.85871 10.6002C1.50893 9.78905 1.33382 8.92238 1.33337 8.00016C1.33337 7.07794 1.50849 6.21127 1.85871 5.40016C2.20893 4.58905 2.68382 3.8835 3.28337 3.2835C3.88337 2.6835 4.58893 2.20861 5.40004 1.85883C6.21115 1.50905 7.07782 1.33394 8.00004 1.3335C8.92226 1.3335 9.78893 1.50861 10.6 1.85883C11.4112 2.20905 12.1167 2.68394 12.7167 3.2835C13.3167 3.8835 13.7918 4.58905 14.142 5.40016C14.4923 6.21127 14.6672 7.07794 14.6667 8.00016C14.6667 8.92238 14.4916 9.78905 14.1414 10.6002C13.7912 11.4113 13.3163 12.1168 12.7167 12.7168C12.1167 13.3168 11.4112 13.7919 10.6 14.1422C9.78893 14.4924 8.92226 14.6673 8.00004 14.6668Z" fill="#CCFF01"/>
</svg>
